# xmcd CD database file
#
# Track frame offsets:
#	150
#	27399
#	44140
#	59213
#	76664
#	97489
#	121996
#	141203
#	156791
#	177769
#
# Disc length: 2584 seconds
#
# Revision: 0
# Processed by: cddbd v1.5.2PL0 Copyright (c) Steve Scherf et al.
# Submitted via: CDex 1.51
#
DISCID=900a160a
DTITLE=Edgar Godinez - Instrumento Quiero Ser
DYEAR=2007
DGENRE=Merengue
TTITLE0=Cuando deje esta Tierra
TTITLE1=Instrumento Quiero  Ser
TTITLE2=Ayudame Jesus
TTITLE3=Oracion por mis Hijos
TTITLE4=Jesus esta conmigo
TTITLE5=Medicina Espiritual
TTITLE6=Perdoname Jesus
TTITLE7=Solo Tu mi Jesucristo
TTITLE8=No quiero ser igual
TTITLE9=Enamorado de Jesus
EXTD=YEAR: 2007
EXTT0=
EXTT1=
EXTT2=
EXTT3=
EXTT4=
EXTT5=
EXTT6=
EXTT7=
EXTT8=
EXTT9=
PLAYORDER=
